<svg xmlns="http://www.w3.org/2000/svg" xmlns:xlink="http://www.w3.org/1999/xlink" width="1052.996" height="822.357" viewBox="0 0 1052.996 822.357">
  <defs>
    <linearGradient id="linear-gradient" x1="-0.542" y1="-0.31" x2="1.184" y2="1" gradientUnits="objectBoundingBox">
      <stop offset="0" stop-color="#fff"/>
      <stop offset="0.992" stop-color="#ccc"/>
      <stop offset="1" stop-color="#fff"/>
    </linearGradient>
  </defs>
  <g id="bg" transform="translate(80.749 22.928)">
    <path id="パス_77" data-name="パス 77" d="M838.382,867.514S548.94,893.073,340.751,811.286c0,0-95.1-30.67-41.124-33.226,0,0,23.132,0,0-17.891s-79.677-48.561-154.214-51.116c0,0-195.338-2.556-66.826-109.9,0,0,89.958-46-10.281-74.119,0,0-51.572-15.823-33.5-43.694,0,0,15.506-32.98,77.192-66.206,0,0,35.983-17.891,15.421-38.337,0,0-17.992-20.447-43.694-25.558,0,0-59.116-15.335-59.116-38.337,0,0-15.421-43.449,89.959-56.228,0,0,59.115-7.668,59.115-30.67,0,0,2.57-20.447-25.7-23,0,0-25.7-2.556-17.992-33.226,0,0,17.992-104.788,167.065-63.9,0,0,97.669,35.781,123.371,38.337,0,0,64.256,17.891,66.826-28.114,0,0-2.57-31.812,37.268-38.907,0,0,196.623-35.211,230.036,38.907,0,0,12.851,25.558-25.7,30.67,0,0-25.7,0-2.57,33.226,0,0,10.281,15.335,56.545,12.779,0,0,125.942-5.112,138.793,23,0,0,10.281,17.891,2.57,30.67,0,0-10.281,33.226-77.107,40.893,0,0-95.1,10.223-43.694,30.67,0,0,77.107,33.226,143.933,35.781,0,0,95.1-2.556,84.818,17.891,0,0,2.57,12.779-28.273,20.447,0,0-30.843,10.223-5.141,33.226,0,0,62.233,48.56,45.252,81.786,0,0-17.308,53.672-82.684,66.451,0,0-98.79,15.335-37.1,53.672,0,0,38.554,23,59.115,28.114,0,0,48.834,12.779,51.4,56.228,0,0,10.281,40.893-84.818,43.449,0,0-69.4,0-74.537,2.556,0,0-15.421,2.556,0,15.335,0,0,61.686,38.337,51.4,63.9C926.765,836.845,927.346,854.735,838.382,867.514Z" transform="translate(-74.671 -71.867)" fill="url(#linear-gradient)"/>
    <path id="パス_76" data-name="パス 76" d="M731.022,871.8c-29.133,0-58.254-.774-86.556-2.3-34.263-1.847-67.679-4.819-99.322-8.835a1051.827,1051.827,0,0,1-104-18.278c-17.714-4.1-34.947-8.669-51.222-13.589-17.2-5.2-33.8-10.933-49.344-17.038-.571-.185-15.114-4.906-29.326-10.676a167.451,167.451,0,0,1-19.949-9.335c-6.194-3.583-9.051-6.483-8.734-8.866a3.2,3.2,0,0,1,1.3-2.077,9.851,9.851,0,0,1,3.145-1.519,53.439,53.439,0,0,1,12.588-1.723h.024a23.465,23.465,0,0,0,4.427-.506c2.009-.442,4.541-1.369,5.19-3.271.683-2-.484-5.918-9.923-13.218-6.9-5.338-26.34-19.067-57.705-31.238A294.659,294.659,0,0,0,145.4,709.554c-.185,0-6.2-.094-15.192-.784a306.582,306.582,0,0,1-34.42-4.548C80.885,701.3,68.439,697.393,58.8,692.595a60.316,60.316,0,0,1-14.272-9.543A32.127,32.127,0,0,1,35.877,670.4a28.548,28.548,0,0,1-1.259-13.606,47.979,47.979,0,0,1,5.809-16.3,106.056,106.056,0,0,1,14.12-19.243,232.4,232.4,0,0,1,23.72-22.477l.043-.036.05-.026a125.589,125.589,0,0,0,19.246-12.687A64.488,64.488,0,0,0,110.325,572.8c3.654-5.352,5.261-10.514,4.778-15.344a18.4,18.4,0,0,0-2.991-8.209,32.719,32.719,0,0,0-8.1-8.233,74.489,74.489,0,0,0-14.3-8,165.4,165.4,0,0,0-21.545-7.494l-.012,0a102.307,102.307,0,0,1-15.927-6.763,64.853,64.853,0,0,1-12.274-8.236c-4.141-3.63-6.963-7.455-8.387-11.37-2.12-5.828-1.178-11.9,2.8-18.047a50.429,50.429,0,0,1,3.408-5.706,121,121,0,0,1,12.127-15.034,194.249,194.249,0,0,1,23.7-21.256,285.132,285.132,0,0,1,38.152-24.4l.014-.008a63.539,63.539,0,0,0,9.911-6.442,41.958,41.958,0,0,0,7.222-7.16,20.178,20.178,0,0,0,4.172-8.931,14.111,14.111,0,0,0-.719-7.224,21.914,21.914,0,0,0-5.295-7.779l-.023-.024a87.3,87.3,0,0,0-12.153-10.807,90.464,90.464,0,0,0-13.732-8.491,70.408,70.408,0,0,0-17.531-6.1l-.028-.006a208.914,208.914,0,0,1-29.639-10.572c-8.622-3.914-15.5-8.01-20.437-12.173-6.215-5.24-9.382-10.62-9.414-15.994a20.166,20.166,0,0,1-.789-6.2,26.765,26.765,0,0,1,.956-6.717,31.016,31.016,0,0,1,3.594-8.15c4.844-7.822,13.333-14.641,25.23-20.27a144.647,144.647,0,0,1,25.207-8.859,278.033,278.033,0,0,1,36.2-6.611,187.818,187.818,0,0,0,29.475-6.692c8.529-2.766,15.318-5.927,20.177-9.4,5.987-4.272,9.023-9.012,9.023-14.086v-.031l0-.031a16.808,16.808,0,0,0-.2-4.282,19.125,19.125,0,0,0-3.943-8.9c-4.242-5.259-11.345-8.373-21.113-9.256a23.715,23.715,0,0,1-5.792-1.533,24.368,24.368,0,0,1-5.189-2.79,20.6,20.6,0,0,1-4.942-4.937c-4.245-6.038-5.09-14.3-2.514-24.567a70.556,70.556,0,0,1,3.419-11.538,95.411,95.411,0,0,1,14.408-25.353,91.47,91.47,0,0,1,31.649-25.357,107.928,107.928,0,0,1,24.221-8.35,143.666,143.666,0,0,1,30.832-3.164,202.686,202.686,0,0,1,29.149,2.236,285.742,285.742,0,0,1,34.009,7.251l.04.013c.244.089,24.729,9.05,52.036,18.206,16.035,5.377,29.892,9.768,41.184,13.052,14.094,4.1,24.2,6.471,30.029,7.051l.043,0,.042.012c.031.009,3.118.862,7.874,1.7a108.146,108.146,0,0,0,18.343,1.7c10.826,0,19.645-2.016,26.212-5.992,8.483-5.136,13.113-13.561,13.762-25.042a28.483,28.483,0,0,1,.226-5.147A37.8,37.8,0,0,1,490.5,99.091a36.266,36.266,0,0,1,11.094-13.223c5.992-4.448,13.677-7.531,22.84-9.163.116-.021,11.892-2.116,29.836-4.184,10.537-1.214,21.111-2.181,31.426-2.875,12.9-.867,25.422-1.307,37.232-1.307,31.9,0,58.8,3.163,79.95,9.4a133.288,133.288,0,0,1,17.065,6.252,91.686,91.686,0,0,1,14.763,8.284,65.4,65.4,0,0,1,11.887,10.558,53.234,53.234,0,0,1,8.417,13.058,22.583,22.583,0,0,1,1.762,5.708,21.285,21.285,0,0,1,.25,5.746,17.353,17.353,0,0,1-1.916,6.462,20.612,20.612,0,0,1-8.384,8.171c-4.508,2.544-10.5,4.325-17.8,5.293l-.033,0h-.033a16.5,16.5,0,0,0-4.284.714,12.6,12.6,0,0,0-3.515,1.662,8.836,8.836,0,0,0-2.841,3.177c-1.286,2.466-1.427,5.688-.419,9.576,1.241,4.788,4.236,10.612,8.9,17.311l.005.007c.021.031,2.251,3.24,9.006,6.411a61.572,61.572,0,0,0,14.086,4.421,119.175,119.175,0,0,0,22.988,2.013c3.208,0,6.58-.1,10.022-.287h.007c.09,0,9.119-.364,22.355-.364,18.374,0,45.183.686,68.561,3.956,12.771,1.786,23.225,4.173,31.073,7.092a48.065,48.065,0,0,1,10.912,5.486,18.435,18.435,0,0,1,6.357,7.1,49.314,49.314,0,0,1,4.215,10.644,34.946,34.946,0,0,1,1.261,10.089,21.367,21.367,0,0,1-2.893,10.374,26.958,26.958,0,0,1-2.684,5.367A53.577,53.577,0,0,1,911.024,264.4a86.157,86.157,0,0,1-23.509,13.78c-11.5,4.654-25.083,7.9-40.371,9.658-.146.016-14.455,1.571-28.779,4.607a120.271,120.271,0,0,0-20.077,5.739,29.519,29.519,0,0,0-6.78,3.68c-1.692,1.32-2.642,2.665-2.825,4-.229,1.675.755,3.449,2.922,5.272,2.47,2.077,6.5,4.235,11.972,6.412l.013.005c.193.083,19.578,8.4,46.87,16.918,16.025,5,31.6,9.1,46.293,12.166a307.96,307.96,0,0,0,50.574,6.657c.268-.007,4.054-.1,9.806-.1a413.561,413.561,0,0,1,42.808,1.995A125.936,125.936,0,0,1,1020.6,358.9a37.577,37.577,0,0,1,7.433,2.913,11.8,11.8,0,0,1,4.5,3.864,6.02,6.02,0,0,1,.131,6.093c.093.76.231,3.795-2.692,7.573a27.222,27.222,0,0,1-8.426,6.8,72.7,72.7,0,0,1-17.532,6.473,33.835,33.835,0,0,0-6.716,3.314,23.177,23.177,0,0,0-4.989,4.207,13.09,13.09,0,0,0-3.07,5.9c-1.179,5.678,2.124,12.048,9.817,18.937.264.207,4.121,3.246,9.474,8.12a204.572,204.572,0,0,1,19.584,20.378c7.836,9.5,13.365,18.486,16.434,26.7a42.079,42.079,0,0,1,2.869,13.909,27.844,27.844,0,0,1-2.968,13.255,67.51,67.51,0,0,1-3.743,8.619,107.3,107.3,0,0,1-13.162,19.942,108.4,108.4,0,0,1-25.476,22.346,118.253,118.253,0,0,1-40.671,15.842l-.019,0a196.158,196.158,0,0,0-27.009,6.552,87.154,87.154,0,0,0-19.335,8.58c-6.009,3.816-9.5,7.94-10.38,12.255-1.567,7.689,5.1,16.224,19.808,25.366.3.181,9.9,5.884,21.819,12.124,7.078,3.7,13.58,6.87,19.325,9.409a115.6,115.6,0,0,0,17.827,6.52l.006,0a70.454,70.454,0,0,1,7.732,2.7,91.759,91.759,0,0,1,17.163,9.2,66.771,66.771,0,0,1,17.681,17.424,53.874,53.874,0,0,1,9.2,27.322,18.806,18.806,0,0,1,.2,5.87,24.921,24.921,0,0,1-1.464,6.148,28.629,28.629,0,0,1-4.028,7.225c-5.035,6.639-13.208,12.06-24.292,16.112-14.048,5.135-32.794,8.051-55.72,8.667H949.9c-.173,0-17.552,0-35.333.319-10.44.185-18.974.441-25.364.758-9.871.491-12.853,1.046-13.617,1.426l-.067.033-.074.012c-.054.009-5.427.943-6.311,4.224a5.348,5.348,0,0,0,.816,4,24.507,24.507,0,0,0,5.707,6.211c.37.231,4.159,2.613,9.474,6.388a226.349,226.349,0,0,1,20.126,16.011c8.244,7.452,14.383,14.477,18.245,20.879a34.6,34.6,0,0,1,4.5,10.842,17.932,17.932,0,0,1-.736,10.285,6.465,6.465,0,0,1-1.389,3.182c-1.816,2.552-5.079,5.141-9.7,7.7-6.406,3.543-15.261,6.9-26.319,9.988-13.8,3.848-31.091,7.279-51.4,10.2l-.027,0c-.107.01-10.931.957-29.5,1.892C791.793,870.767,764.368,871.8,731.022,871.8ZM299.64,778.561a52.511,52.511,0,0,0-12.324,1.677c-2.343.737-3.605,1.671-3.752,2.775-.271,2.036,3.015,6.969,28.063,17.14,14.392,5.844,29.13,10.611,29.277,10.658l.029.01c57.183,22.464,125.932,38.9,204.336,48.849,31.619,4.012,65.011,6.982,99.25,8.828,28.284,1.525,57.387,2.3,86.5,2.3,33.322,0,60.726-1.028,77.848-1.889,18.253-.919,29.011-1.849,29.455-1.888,20.045-2.88,37.144-6.259,50.819-10.044,10.962-3.034,19.762-6.334,26.156-9.808,5.685-3.089,8.367-5.74,9.616-7.42a5.705,5.705,0,0,0,1.349-2.888l-.007-.109.043-.09c2.283-5.676,1.052-12.513-3.659-20.321-3.812-6.318-9.888-13.267-18.059-20.653a225.327,225.327,0,0,0-20.034-15.937c-5.546-3.939-9.414-6.349-9.452-6.372l-.029-.018-.026-.022a25.5,25.5,0,0,1-5.966-6.511,6.287,6.287,0,0,1-.909-4.754c1-3.717,6.329-4.806,7.042-4.935,1.346-.607,5.911-1.1,13.943-1.5,6.4-.318,14.946-.574,25.4-.759,17.638-.313,34.879-.32,35.341-.32,22.815-.613,41.453-3.509,55.4-8.606,10.9-3.985,18.922-9.293,23.839-15.777a27.633,27.633,0,0,0,3.889-6.972,23.912,23.912,0,0,0,1.405-5.9,17.726,17.726,0,0,0-.19-5.571l-.011-.045,0-.047a52.89,52.89,0,0,0-9.032-26.865,65.777,65.777,0,0,0-17.419-17.16,90.746,90.746,0,0,0-16.973-9.094,69.67,69.67,0,0,0-7.6-2.654A116.562,116.562,0,0,1,965.2,649.29c-5.766-2.548-12.289-5.724-19.387-9.439-12.081-6.323-21.775-12.1-21.871-12.154l-.008,0c-7.872-4.892-13.545-9.685-16.863-14.247-3.046-4.188-4.189-8.282-3.4-12.169.936-4.593,4.579-8.934,10.829-12.9a88.157,88.157,0,0,1,19.567-8.687,197.33,197.33,0,0,1,27.147-6.585,117.266,117.266,0,0,0,40.293-15.689,107.4,107.4,0,0,0,25.237-22.122,106.312,106.312,0,0,0,13.048-19.752,66.949,66.949,0,0,0,3.714-8.55l.012-.038.018-.036c3.806-7.447,3.831-16.325.073-26.387-3.028-8.108-8.5-16.993-16.261-26.408a203.51,203.51,0,0,0-19.484-20.276c-5.5-5.005-9.4-8.063-9.442-8.093l-.026-.022c-7.987-7.148-11.4-13.843-10.14-19.9a14.083,14.083,0,0,1,3.3-6.365,24.213,24.213,0,0,1,5.214-4.394,34.046,34.046,0,0,1,6.939-3.415l.037-.011a72.014,72.014,0,0,0,17.21-6.328,26.536,26.536,0,0,0,8.142-6.5,11.884,11.884,0,0,0,2.452-5.022,5.932,5.932,0,0,0,.1-2.02l-.032-.167.076-.154a5.06,5.06,0,0,0-.018-5.263c-1.513-2.454-5.336-4.588-11.362-6.341a125,125,0,0,0-20.485-3.676,412.574,412.574,0,0,0-42.7-1.989c-5.925,0-9.756.1-9.794.1h-.033a308.936,308.936,0,0,1-50.765-6.679c-14.725-3.077-30.334-7.179-46.391-12.192-27.127-8.469-46.461-16.738-46.948-16.947-5.571-2.216-9.69-4.428-12.241-6.574-2.448-2.059-3.548-4.136-3.269-6.173.219-1.6,1.3-3.166,3.2-4.652a30.485,30.485,0,0,1,7.016-3.816,121.262,121.262,0,0,1,20.254-5.793c14.373-3.046,28.726-4.606,28.869-4.621,15.165-1.74,28.638-4.958,40.04-9.564A85.3,85.3,0,0,0,910.308,263.7a52.7,52.7,0,0,0,10.773-12.14,25.84,25.84,0,0,0,2.636-5.257l.018-.058.031-.052a20.36,20.36,0,0,0,2.78-9.942,33.948,33.948,0,0,0-1.229-9.8,48,48,0,0,0-4.127-10.422l-.021-.041c-2.145-4.692-7.769-8.759-16.718-12.088-7.78-2.894-18.163-5.263-30.863-7.039-23.321-3.262-50.081-3.947-68.423-3.947-13.052,0-22,.351-22.307.363h0c-3.461.191-6.851.288-10.077.288a119.982,119.982,0,0,1-23.281-2.051,62.253,62.253,0,0,1-14.33-4.53c-6.952-3.288-9.207-6.569-9.3-6.707h0c-4.731-6.8-7.773-12.727-9.043-17.629-1.072-4.135-.9-7.6.5-10.29a9.832,9.832,0,0,1,3.172-3.542,13.633,13.633,0,0,1,3.806-1.794,17.35,17.35,0,0,1,4.512-.748c13.241-1.761,21.786-6.11,25.4-12.927a16.352,16.352,0,0,0,1.806-6.076,20.261,20.261,0,0,0-.231-5.466,21.946,21.946,0,0,0-1.682-5.477l-.009-.019C746.367,99.149,729.038,86.495,702.6,78.7c-21.06-6.21-47.863-9.359-79.667-9.359-11.786,0-24.288.439-37.159,1.3-10.3.693-20.855,1.658-31.375,2.87-17.915,2.064-29.667,4.155-29.783,4.176-9.011,1.6-16.554,4.627-22.42,8.982A35.274,35.274,0,0,0,491.4,99.532a36.79,36.79,0,0,0-3.426,11.552,27.417,27.417,0,0,0-.219,4.98l0,.034,0,.034c-.662,11.847-5.455,20.552-14.245,25.874-6.725,4.072-15.719,6.136-26.73,6.136a109.185,109.185,0,0,1-18.531-1.72c-4.5-.8-7.522-1.605-7.911-1.711-5.9-.593-16.049-2.976-30.168-7.082-11.305-3.288-25.175-7.683-41.223-13.065-26.985-9.049-51.215-17.905-52.04-18.208a284.7,284.7,0,0,0-33.869-7.22,201.668,201.668,0,0,0-29-2.226c-20.768,0-39.133,3.835-54.585,11.4a90.485,90.485,0,0,0-31.3,25.058,94.4,94.4,0,0,0-14.269,25.081,69.114,69.114,0,0,0-3.388,11.412l-.008.037c-2.508,9.977-1.715,17.973,2.357,23.767a19.606,19.606,0,0,0,4.7,4.7,23.375,23.375,0,0,0,4.976,2.675,23.094,23.094,0,0,0,5.519,1.468,40.363,40.363,0,0,1,13.9,3.518,22.662,22.662,0,0,1,7.908,6.12,20.13,20.13,0,0,1,4.147,9.4,17.687,17.687,0,0,1,.2,4.491c-.012,5.406-3.19,10.41-9.446,14.873-4.945,3.528-11.828,6.735-20.457,9.533a188.943,188.943,0,0,1-29.648,6.729c-25.493,3.091-46.038,8.261-61.07,15.365-11.721,5.54-20.072,12.227-24.821,19.876a30.053,30.053,0,0,0-3.486,7.866,25.781,25.781,0,0,0-.935,6.46,19.1,19.1,0,0,0,.76,6l.028.081v.086c0,5.092,3.048,10.244,9.059,15.312,4.868,4.1,11.666,8.151,20.205,12.027a207.8,207.8,0,0,0,29.463,10.51,71.427,71.427,0,0,1,17.781,6.19,91.484,91.484,0,0,1,13.891,8.593,88.663,88.663,0,0,1,12.273,10.92c5.059,5.036,7.174,10.372,6.285,15.862A21.167,21.167,0,0,1,129.7,401.7a42.982,42.982,0,0,1-7.4,7.338,64.709,64.709,0,0,1-10.065,6.538,284.182,284.182,0,0,0-37.971,24.284A193.385,193.385,0,0,0,50.683,460.99,120.236,120.236,0,0,0,38.639,475.9a49.6,49.6,0,0,0-3.378,5.649l-.014.031-.018.028a22.405,22.405,0,0,0-3.609,9.129,16.806,16.806,0,0,0,.893,8.059c1.366,3.755,4.093,7.442,8.106,10.96A63.851,63.851,0,0,0,52.7,517.867a101.238,101.238,0,0,0,15.746,6.689,166.372,166.372,0,0,1,21.67,7.54,75.477,75.477,0,0,1,14.495,8.114,33.7,33.7,0,0,1,8.339,8.493,19.391,19.391,0,0,1,3.147,8.654c.507,5.072-1.159,10.46-4.952,16.013a65.505,65.505,0,0,1-12.923,13.44,126.917,126.917,0,0,1-19.357,12.764c-34.327,28.683-48.474,52.4-42.047,70.491,3,8.444,10.545,15.723,22.425,21.636,9.56,4.758,21.92,8.641,36.739,11.541a305.621,305.621,0,0,0,34.3,4.532c9.061.7,15.073.781,15.133.781h.011A295.655,295.655,0,0,1,241.978,728.4a274.675,274.675,0,0,1,34.52,16.163,193.091,193.091,0,0,1,23.435,15.216c4.213,3.259,7.19,6.161,8.847,8.627,1.478,2.2,1.952,4.119,1.41,5.705C308.7,778.47,300.156,778.56,299.64,778.561Z" transform="translate(-104.07 -91.267)" fill="#999"/>
  </g>
</svg>
