<?xml version="1.0" encoding="UTF-8"?><svg id="_レイヤー_1" xmlns="http://www.w3.org/2000/svg" viewBox="0 0 328.039 148.748"><defs><style>.cls-1{fill:#fff800;stroke:#242424;stroke-miterlimit:10;stroke-width:5px;}</style></defs><path class="cls-1" d="m38.213,2.5v142.85H2.5V2.5h35.713Zm88.975,0l-57.957,66.935,61.018,75.915h-41.834L28.213,70.456,86.782,2.5h40.406Z"/><path class="cls-1" d="m141.062,114.208c3.673-3.673,8.23-5.51,13.673-5.51,5.714,0,10.337,1.837,13.877,5.51,3.536,3.674,5.306,8.096,5.306,13.265s-1.77,9.592-5.306,13.265c-3.54,3.674-8.163,5.51-13.877,5.51-5.443,0-10-1.836-13.673-5.51-3.673-3.673-5.51-8.093-5.51-13.265s1.836-9.591,5.51-13.265Z"/><path class="cls-1" d="m176.161,2.5h113.056v30.815h-39.386v112.035h-34.488V33.315h-39.182V2.5Z"/><path class="cls-1" d="m292.684,114.208c3.673-3.673,8.23-5.51,13.673-5.51,5.714,0,10.337,1.837,13.877,5.51,3.536,3.674,5.306,8.096,5.306,13.265s-1.77,9.592-5.306,13.265c-3.54,3.674-8.163,5.51-13.877,5.51-5.443,0-10-1.836-13.673-5.51-3.673-3.673-5.51-8.093-5.51-13.265s1.836-9.591,5.51-13.265Z"/></svg>