<?xml version="1.0" encoding="utf-8"?>
<!-- Generator: Adobe Illustrator 27.5.0, SVG Export Plug-In . SVG Version: 6.00 Build 0)  -->
<svg version="1.1" id="レイヤー_1" xmlns="http://www.w3.org/2000/svg" xmlns:xlink="http://www.w3.org/1999/xlink" x="0px"
	 y="0px" viewBox="0 0 256 48" style="enable-background:new 0 0 256 48;" xml:space="preserve">
<path d="M60.3,47.5c-0.5,0-1-0.2-1.4-0.5L37.8,33c-0.2-0.2-0.5-0.4-0.6-0.6c0,0,0,0,0,0s0,0,0,0l0,0c0,0,0,0,0,0
	c-0.3-0.4-0.4-0.8-0.4-1.3V16.9c0-0.4,0.1-0.9,0.4-1.3c0.2-0.3,0.4-0.5,0.7-0.7L59,0.9c0.7-0.5,1.8-0.5,2.5,0L82.8,15
	c0.4,0.3,0.8,0.7,0.9,1.2c0.1,0.2,0.1,0.4,0.1,0.7v14.1c0,0.5-0.1,1-0.4,1.5c-0.2,0.3-0.5,0.5-0.8,0.7l-21.1,14
	c-0.2,0.2-0.5,0.3-0.7,0.3C60.6,47.5,60.5,47.5,60.3,47.5z M62.5,32.2v9l15.1-10l-6.7-4.5L62.5,32.2z M43,31.1l15,10v-9l-8.3-5.5
	L43,31.1z M53.7,23.9l6.6,4.4l6.6-4.4l-6.6-4.4L53.7,23.9z M41.2,21v6l4.5-3L41.2,21z M74.9,24l4.5,3v-6L74.9,24z M43,16.8l6.7,4.4
	l8.3-5.6V6.9L43,16.8z M62.5,15.6l8.4,5.6l6.7-4.4l-15-10V15.6z M217,39.8h-17.4c-1.2,0-2.2-1-2.2-2.2V24.2c0-0.1,0-0.1,0-0.2
	s0-0.1,0-0.2V10.5c0-1.2,1-2.2,2.2-2.2H217c1.2,0,2.2,1,2.2,2.2s-1,2.2-2.2,2.2h-15.2v9.1h9.4c1.2,0,2.2,1,2.2,2.2
	c0,1.2-1,2.2-2.2,2.2h-9.4v9.1H217c1.2,0,2.2,1,2.2,2.2S218.2,39.8,217,39.8z M166.7,39.8c-1.2,0-2.2-1-2.2-2.2V10.5
	c0-1.2,1-2.2,2.2-2.2h11.6c5.5,0,10,4.5,10,10s-4.5,10-10,10h-9.4v9.4C168.9,38.8,167.9,39.8,166.7,39.8z M168.9,23.7h9.4
	c3,0,5.5-2.5,5.5-5.5s-2.5-5.5-5.5-5.5h-9.4V23.7z M151.2,39.8h-17.4c-1.2,0-2.2-1-2.2-2.2V10.5c0-1.2,1-2.2,2.2-2.2h17.4
	c1.2,0,2.2,1,2.2,2.2s-1,2.2-2.2,2.2H136v9.1h9.4c1.2,0,2.2,1,2.2,2.2c0,1.2-1,2.2-2.2,2.2H136v9.1h15.2c1.2,0,2.2,1,2.2,2.2
	S152.4,39.8,151.2,39.8z M253.8,39.8c-0.7,0-1.3-0.3-1.8-0.9l-17.3-22v20.7c0,1.2-1,2.2-2.2,2.2s-2.2-1-2.2-2.2V10.4
	c0-0.9,0.6-1.8,1.5-2.1c0.9-0.3,1.9,0,2.5,0.7l17.3,22V10.4c0-1.2,1-2.2,2.2-2.2s2.2,1,2.2,2.2v27.1c0,0.9-0.6,1.8-1.5,2.1
	C254.3,39.7,254,39.8,253.8,39.8z M106.7,39.8H97c-1.2,0-2.2-1-2.2-2.2V10.4c0-1.2,1-2.2,2.2-2.2h9.7c9,0,15.8,6.8,15.8,15.8v0
	C122.5,33,115.7,39.8,106.7,39.8z M99.3,35.3h7.4c6.6,0,11.3-4.8,11.3-11.3v0c0-6.6-4.8-11.3-11.3-11.3h-7.4V35.3z M15.8,39.8
	C6.8,39.8,0,33,0,24S6.8,8.2,15.8,8.2c4.4,0,8.3,1.6,11.2,4.5c0.9,0.9,0.9,2.3,0,3.1c-0.9,0.9-2.3,0.9-3.1,0
	c-2.1-2.1-4.9-3.2-8.1-3.2C9.2,12.7,4.5,17.4,4.5,24c0,6.6,4.8,11.3,11.3,11.3c3.8,0,6.5-1.8,8.2-3.3c0.9-0.8,2.3-0.8,3.1,0.1
	c0.8,0.9,0.8,2.3-0.1,3.1C23.8,38.2,19.9,39.8,15.8,39.8z"/>
</svg>
