<?xml version="1.0" encoding="utf-8"?>
<!-- Generator: Adobe Illustrator 27.5.0, SVG Export Plug-In . SVG Version: 6.00 Build 0)  -->
<svg version="1.1" id="_レイヤー_1" xmlns="http://www.w3.org/2000/svg" xmlns:xlink="http://www.w3.org/1999/xlink" x="0px"
	 y="0px" viewBox="0 0 500 500" style="enable-background:new 0 0 500 500;" xml:space="preserve">
<style type="text/css">
	.st0{fill:#FFFFFF;}
</style>
<g>
	<g>
		<polygon class="st0" points="150.8,199.5 250,1.1 349.2,199.5 		"/>
		<path d="M250,2.2L348.4,199H151.6L250,2.2 M250,0L150,200h200L250,0C250,0,250,0,250,0z"/>
	</g>
	<g>
		<polygon class="st0" points="0.8,499.5 75.3,350.5 424.7,350.5 499.2,499.5 		"/>
		<path d="M424.4,351l74,148H1.6l74-148L424.4,351 M425,350H75L0,500h500L425,350L425,350z"/>
	</g>
	<g>
		<polygon class="st0" points="75.8,349.5 150.3,200.5 349.7,200.5 424.2,349.5 		"/>
		<path d="M349.4,201l74,148H76.6l74-148H349.4 M350,200H150L75,350h350L350,200L350,200z"/>
	</g>
</g>
<path d="M253,122.8c-0.2-0.2-0.4-0.4-0.7-0.6c-0.3-0.1-0.7-0.2-1.1-0.2c-0.6,0-1.1,0.1-1.6,0.4s-0.9,0.7-1.3,1.2l-1.8-1.5
	c0.4-0.5,0.9-0.9,1.3-1.3c0.5-0.3,1-0.6,1.6-0.8c0.6-0.2,1.2-0.3,1.9-0.3c0.6,0,1.2,0.1,1.7,0.3s1,0.4,1.5,0.8
	c0.4,0.3,0.8,0.8,1,1.2s0.4,1,0.4,1.7c0,0.7-0.2,1.4-0.6,1.9s-0.9,1-1.4,1.3s-1.2,0.5-1.9,0.7l-0.1,1.5h-2.2l-0.4-3.2h0.6
	c0.7,0,1.3-0.1,1.8-0.4c0.5-0.2,0.8-0.5,1-0.9c0.2-0.3,0.3-0.7,0.3-1C253.2,123.3,253.1,123,253,122.8L253,122.8z M249.7,130.6
	c0.3-0.3,0.7-0.4,1.2-0.4c0.5,0,0.9,0.1,1.2,0.4c0.3,0.3,0.5,0.6,0.5,1c0,0.4-0.2,0.8-0.5,1.1c-0.3,0.3-0.7,0.4-1.2,0.4
	c-0.5,0-0.9-0.1-1.2-0.4s-0.5-0.6-0.5-1.1C249.2,131.2,249.4,130.9,249.7,130.6z"/>
<g>
	<path d="M194.9,415.7v12.6h-3v-12.6H194.9z M192.7,420.3h9.5v2.7h-9.5V420.3z M203.4,415.7v12.6h-3v-12.6H203.4z"/>
	<path d="M204.8,415.7h10v2.7h-3.5v9.9h-3v-9.9h-3.5V415.7z"/>
	<path d="M218.6,428.3h-3.2l2-13.2l5.4,7.7l5.4-7.7l2,13.2H227l-0.8-6.4l-3.5,5.3l-3.4-5.3L218.6,428.3L218.6,428.3z"/>
	<path d="M235.2,415.7v10h5.1v2.6h-8.1v-12.6L235.2,415.7L235.2,415.7z"/>
	<path d="M256.4,413.7l-7.7,15.3H246l7.8-15.3H256.4L256.4,413.7z"/>
	<path d="M266.5,424c0.3,0.6,0.8,1,1.4,1.3c0.6,0.3,1.2,0.4,1.9,0.4c0.6,0,1.1-0.1,1.6-0.2s0.9-0.4,1.2-0.6s0.7-0.5,1-0.8v3.3
		c-0.5,0.4-1.1,0.7-1.7,0.9c-0.6,0.2-1.4,0.3-2.3,0.3c-1,0-1.9-0.2-2.8-0.5c-0.9-0.3-1.6-0.8-2.2-1.4s-1.1-1.3-1.4-2.1
		c-0.3-0.8-0.5-1.7-0.5-2.7s0.2-1.9,0.5-2.7s0.8-1.5,1.4-2.1s1.3-1,2.2-1.4c0.9-0.3,1.8-0.5,2.8-0.5c0.9,0,1.7,0.1,2.3,0.3
		c0.6,0.2,1.2,0.5,1.7,0.9v3.3c-0.3-0.3-0.6-0.6-1-0.8c-0.4-0.3-0.8-0.5-1.2-0.6s-1-0.2-1.6-0.2c-0.7,0-1.3,0.1-1.9,0.4
		c-0.6,0.3-1,0.7-1.4,1.3c-0.3,0.6-0.5,1.2-0.5,2C266,422.8,266.2,423.5,266.5,424L266.5,424z"/>
	<path d="M278.3,425.1c0.3,0.3,0.7,0.6,1,0.8s0.8,0.3,1.2,0.3c0.4,0,0.8-0.1,1.1-0.3c0.3-0.2,0.4-0.5,0.4-0.9c0-0.3-0.1-0.6-0.3-0.8
		c-0.2-0.2-0.4-0.4-0.8-0.6s-0.9-0.4-1.5-0.6c-0.3-0.1-0.6-0.3-1-0.4c-0.4-0.2-0.8-0.4-1.1-0.7c-0.3-0.3-0.6-0.7-0.9-1.1
		s-0.3-1-0.3-1.6c0-0.7,0.2-1.4,0.6-1.9s0.9-1,1.6-1.2c0.7-0.3,1.4-0.4,2.2-0.4c0.8,0,1.6,0.1,2.2,0.4s1.1,0.6,1.5,1
		c0.4,0.4,0.7,0.8,0.9,1.3l-2.3,1.3c-0.2-0.3-0.4-0.6-0.6-0.8c-0.2-0.2-0.5-0.4-0.8-0.5s-0.6-0.2-0.9-0.2c-0.4,0-0.8,0.1-1,0.3
		c-0.2,0.2-0.3,0.4-0.3,0.7c0,0.3,0.1,0.5,0.3,0.8c0.2,0.2,0.5,0.4,1,0.6c0.4,0.2,0.9,0.4,1.5,0.6c0.4,0.2,0.9,0.4,1.2,0.6
		c0.4,0.2,0.7,0.5,1,0.8c0.3,0.3,0.5,0.7,0.7,1.1c0.2,0.4,0.3,0.9,0.3,1.4c0,0.6-0.1,1.2-0.4,1.7c-0.3,0.5-0.6,0.9-1,1.3
		s-0.9,0.6-1.5,0.8s-1.1,0.3-1.7,0.3c-0.8,0-1.6-0.1-2.3-0.4s-1.3-0.7-1.8-1.2s-0.9-1.1-1.2-1.7l2.1-1.5
		C277.7,424.4,278,424.8,278.3,425.1L278.3,425.1z"/>
	<path d="M289.5,425.1c0.3,0.3,0.7,0.6,1,0.8s0.8,0.3,1.2,0.3c0.4,0,0.8-0.1,1.1-0.3c0.3-0.2,0.4-0.5,0.4-0.9c0-0.3-0.1-0.6-0.3-0.8
		c-0.2-0.2-0.4-0.4-0.8-0.6s-0.9-0.4-1.5-0.6c-0.3-0.1-0.6-0.3-1-0.4c-0.4-0.2-0.8-0.4-1.1-0.7c-0.3-0.3-0.6-0.7-0.9-1.1
		s-0.3-1-0.3-1.6c0-0.7,0.2-1.4,0.6-1.9s0.9-1,1.6-1.2c0.7-0.3,1.4-0.4,2.2-0.4c0.8,0,1.6,0.1,2.2,0.4s1.1,0.6,1.5,1
		c0.4,0.4,0.7,0.8,0.9,1.3l-2.3,1.3c-0.2-0.3-0.4-0.6-0.6-0.8c-0.2-0.2-0.5-0.4-0.8-0.5s-0.6-0.2-0.9-0.2c-0.4,0-0.8,0.1-1,0.3
		c-0.2,0.2-0.3,0.4-0.3,0.7c0,0.3,0.1,0.5,0.3,0.8c0.2,0.2,0.5,0.4,1,0.6c0.4,0.2,0.9,0.4,1.5,0.6c0.4,0.2,0.9,0.4,1.2,0.6
		c0.4,0.2,0.7,0.5,1,0.8c0.3,0.3,0.5,0.7,0.7,1.1c0.2,0.4,0.3,0.9,0.3,1.4c0,0.6-0.1,1.2-0.4,1.7c-0.3,0.5-0.6,0.9-1,1.3
		s-0.9,0.6-1.5,0.8s-1.1,0.3-1.7,0.3c-0.8,0-1.6-0.1-2.3-0.4s-1.3-0.7-1.8-1.2s-0.9-1.1-1.2-1.7l2.1-1.5
		C288.9,424.4,289.2,424.8,289.5,425.1L289.5,425.1z"/>
</g>
<g>
	<path d="M206.8,279.6c0.3,0.1,0.5,0.2,0.8,0.2c0.3,0,0.5-0.1,0.8-0.3c0.3-0.2,0.4-0.6,0.4-1.1v-12.9h3.3V279c0,0.6-0.1,1.1-0.3,1.5
		s-0.5,0.8-0.9,1c-0.4,0.3-0.8,0.5-1.3,0.6c-0.5,0.1-1,0.2-1.6,0.2c-0.5,0-0.9-0.1-1.3-0.2c-0.4-0.1-0.8-0.2-1.2-0.4
		s-0.6-0.3-0.9-0.5l1.7-2.1C206.4,279.4,206.6,279.5,206.8,279.6L206.8,279.6z"/>
	<path d="M216.7,276c0.1,0.1,0.3,0.3,0.4,0.3s0.4,0.1,0.6,0.1c0.3,0,0.6-0.1,0.9-0.2c0.3-0.1,0.5-0.3,0.6-0.6c0.2-0.3,0.3-0.6,0.3-1
		l0.3,1.1c0,0.5-0.1,1-0.4,1.3s-0.7,0.6-1.1,0.8c-0.5,0.2-0.9,0.3-1.5,0.3s-1-0.1-1.5-0.3s-0.8-0.5-1.1-0.9s-0.4-0.9-0.4-1.4
		c0-0.8,0.3-1.4,0.8-1.9s1.4-0.7,2.4-0.7c0.5,0,1,0,1.4,0.1c0.4,0.1,0.7,0.2,1,0.4c0.3,0.1,0.5,0.3,0.6,0.4v1.2
		c-0.3-0.2-0.6-0.4-1-0.5c-0.4-0.1-0.8-0.2-1.2-0.2c-0.3,0-0.6,0-0.8,0.1s-0.3,0.2-0.4,0.3c-0.1,0.1-0.1,0.3-0.1,0.5
		C216.6,275.7,216.6,275.9,216.7,276L216.7,276z M214.5,270.5c0.5-0.2,1-0.4,1.7-0.6s1.4-0.3,2.2-0.3c0.7,0,1.4,0.1,2,0.3
		c0.6,0.2,1,0.5,1.4,0.9c0.3,0.4,0.5,0.9,0.5,1.5v5.8h-2.6v-5.2c0-0.2,0-0.4-0.1-0.5s-0.2-0.3-0.3-0.4s-0.3-0.2-0.5-0.2
		c-0.2,0-0.4-0.1-0.7-0.1c-0.4,0-0.7,0-1.1,0.1c-0.4,0.1-0.7,0.2-0.9,0.3c-0.3,0.1-0.5,0.2-0.6,0.3L214.5,270.5z"/>
	<path d="M226,269.8l1.9,4.6l1.9-4.6h2.9l-4.8,9.3l-4.8-9.3H226z"/>
	<path d="M235.9,276c0.1,0.1,0.3,0.3,0.4,0.3s0.4,0.1,0.6,0.1c0.3,0,0.6-0.1,0.9-0.2c0.3-0.1,0.5-0.3,0.6-0.6c0.2-0.3,0.3-0.6,0.3-1
		l0.3,1.1c0,0.5-0.1,1-0.4,1.3s-0.7,0.6-1.1,0.8c-0.5,0.2-0.9,0.3-1.5,0.3s-1-0.1-1.5-0.3s-0.8-0.5-1.1-0.9s-0.4-0.9-0.4-1.4
		c0-0.8,0.3-1.4,0.8-1.9s1.4-0.7,2.4-0.7c0.5,0,1,0,1.4,0.1c0.4,0.1,0.7,0.2,1,0.4c0.3,0.1,0.5,0.3,0.6,0.4v1.2
		c-0.3-0.2-0.6-0.4-1-0.5c-0.4-0.1-0.8-0.2-1.2-0.2c-0.3,0-0.6,0-0.8,0.1s-0.3,0.2-0.4,0.3c-0.1,0.1-0.1,0.3-0.1,0.5
		C235.8,275.7,235.8,275.9,235.9,276L235.9,276z M233.6,270.5c0.5-0.2,1-0.4,1.7-0.6s1.4-0.3,2.2-0.3c0.7,0,1.4,0.1,2,0.3
		c0.6,0.2,1,0.5,1.4,0.9c0.3,0.4,0.5,0.9,0.5,1.5v5.8h-2.6v-5.2c0-0.2,0-0.4-0.1-0.5s-0.2-0.3-0.3-0.4s-0.3-0.2-0.5-0.2
		c-0.2,0-0.4-0.1-0.7-0.1c-0.4,0-0.7,0-1.1,0.1c-0.4,0.1-0.7,0.2-0.9,0.3c-0.3,0.1-0.5,0.2-0.6,0.3L233.6,270.5z"/>
	<path d="M245.9,274.8c0.3,0.3,0.7,0.6,1,0.8c0.4,0.2,0.8,0.3,1.2,0.3c0.4,0,0.8-0.1,1.1-0.3c0.3-0.2,0.4-0.5,0.4-0.9
		c0-0.3-0.1-0.6-0.3-0.8c-0.2-0.2-0.4-0.4-0.8-0.6c-0.4-0.2-0.9-0.4-1.5-0.6c-0.3-0.1-0.6-0.3-1-0.4c-0.4-0.2-0.8-0.4-1.1-0.7
		c-0.3-0.3-0.6-0.7-0.9-1.1c-0.2-0.4-0.3-1-0.3-1.6c0-0.7,0.2-1.4,0.6-1.9c0.4-0.5,0.9-1,1.6-1.2s1.4-0.4,2.2-0.4
		c0.8,0,1.6,0.1,2.2,0.4c0.6,0.3,1.1,0.6,1.5,1c0.4,0.4,0.7,0.8,0.9,1.3l-2.3,1.3c-0.2-0.3-0.4-0.6-0.6-0.8
		c-0.2-0.2-0.5-0.4-0.8-0.5c-0.3-0.1-0.6-0.2-0.9-0.2c-0.4,0-0.8,0.1-1,0.3c-0.2,0.2-0.3,0.4-0.3,0.7c0,0.3,0.1,0.5,0.3,0.8
		c0.2,0.2,0.5,0.4,1,0.6c0.4,0.2,0.9,0.4,1.5,0.6c0.4,0.2,0.9,0.4,1.2,0.6c0.4,0.2,0.7,0.5,1,0.8c0.3,0.3,0.5,0.7,0.7,1.1
		c0.2,0.4,0.3,0.9,0.3,1.4c0,0.6-0.1,1.2-0.4,1.7c-0.3,0.5-0.6,0.9-1,1.3s-0.9,0.6-1.5,0.8c-0.6,0.2-1.1,0.3-1.7,0.3
		c-0.8,0-1.6-0.1-2.3-0.4s-1.3-0.7-1.8-1.2c-0.5-0.5-0.9-1.1-1.2-1.7l2.1-1.5C245.3,274.1,245.6,274.5,245.9,274.8L245.9,274.8z"/>
	<path d="M257.2,275.1c0.2,0.3,0.5,0.6,0.8,0.7s0.7,0.3,1.1,0.3c0.3,0,0.7-0.1,1-0.2c0.3-0.1,0.6-0.2,0.8-0.4
		c0.3-0.2,0.5-0.4,0.6-0.7v2.6c-0.3,0.2-0.6,0.4-1.1,0.5s-1,0.2-1.6,0.2c-0.9,0-1.7-0.2-2.5-0.5c-0.7-0.4-1.3-0.9-1.7-1.5
		c-0.4-0.6-0.6-1.4-0.6-2.3c0-0.9,0.2-1.6,0.6-2.3s1-1.1,1.7-1.5c0.7-0.4,1.5-0.5,2.5-0.5c0.6,0,1.2,0.1,1.6,0.2
		c0.4,0.1,0.8,0.3,1.1,0.5v2.7c-0.2-0.3-0.4-0.5-0.7-0.7c-0.3-0.2-0.6-0.3-0.9-0.4c-0.3-0.1-0.6-0.1-0.9-0.1c-0.4,0-0.8,0.1-1.1,0.3
		c-0.3,0.2-0.6,0.5-0.8,0.8c-0.2,0.3-0.3,0.7-0.3,1.1C256.9,274.4,257,274.7,257.2,275.1L257.2,275.1z"/>
	<path d="M266.2,278.1h-2.7v-8.3h2.7V278.1z M268.1,272.2c-0.2-0.1-0.4-0.1-0.6-0.1c-0.3,0-0.5,0.1-0.7,0.2
		c-0.2,0.1-0.4,0.4-0.5,0.6c-0.1,0.3-0.2,0.6-0.2,1l-0.6-1c0-0.7,0.1-1.2,0.4-1.8c0.3-0.5,0.6-0.9,1-1.2c0.4-0.3,0.9-0.4,1.3-0.4
		c0.3,0,0.6,0.1,0.9,0.2s0.5,0.3,0.6,0.5l-1.2,2.3C268.4,272.4,268.3,272.3,268.1,272.2L268.1,272.2z"/>
	<path d="M271.2,265.6c0.3-0.3,0.7-0.4,1.1-0.4c0.4,0,0.8,0.1,1.1,0.4c0.3,0.3,0.5,0.6,0.5,1.1s-0.2,0.8-0.5,1.1
		c-0.3,0.3-0.7,0.4-1.1,0.4c-0.4,0-0.8-0.1-1.1-0.4c-0.3-0.3-0.5-0.6-0.5-1.1S270.9,265.9,271.2,265.6z M273.6,269.8v8.3H271v-8.3
		H273.6z"/>
	<path d="M275.9,282v-12.2h2.7V282H275.9z M284.8,276.4c-0.4,0.7-0.9,1.2-1.5,1.5s-1.2,0.5-1.9,0.5c-0.7,0-1.3-0.2-1.9-0.5
		c-0.5-0.4-0.9-0.9-1.2-1.5c-0.3-0.7-0.4-1.4-0.4-2.3c0-0.9,0.1-1.7,0.4-2.3c0.3-0.7,0.7-1.2,1.2-1.5c0.5-0.4,1.1-0.5,1.9-0.5
		c0.7,0,1.3,0.2,1.9,0.5s1.1,0.8,1.5,1.5c0.4,0.7,0.6,1.5,0.6,2.4C285.3,274.9,285.1,275.7,284.8,276.4L284.8,276.4z M282.2,272.8
		c-0.2-0.3-0.4-0.5-0.7-0.7s-0.6-0.2-1-0.2c-0.3,0-0.6,0.1-0.9,0.2c-0.3,0.1-0.5,0.4-0.7,0.7s-0.3,0.7-0.3,1.1s0.1,0.8,0.3,1.1
		c0.2,0.3,0.4,0.5,0.7,0.7c0.3,0.1,0.6,0.2,0.9,0.2c0.4,0,0.7-0.1,1-0.2c0.3-0.2,0.5-0.4,0.7-0.7c0.2-0.3,0.3-0.7,0.3-1.1
		S282.4,273.1,282.2,272.8z"/>
	<path d="M291.5,269.8v2.2H286v-2.2H291.5z M290.1,266.9v11.2h-2.6v-11.2H290.1z"/>
</g>
</svg>
